<?xml version="1.0" standalone="no"?>
<!DOCTYPE svg PUBLIC "-//W3C//DTD SVG 20010904//EN"
 "http://www.w3.org/TR/2001/REC-SVG-20010904/DTD/svg10.dtd">
<svg version="1.0" xmlns="http://www.w3.org/2000/svg"
 width="500.000000pt" height="500.000000pt" viewBox="0 0 500.000000 500.000000"
 preserveAspectRatio="xMidYMid meet">

<g transform="translate(0.000000,500.000000) scale(0.100000,-0.100000)"
fill="#000000" stroke="none">
<path d="M2205 4160 c-22 -6 -49 -14 -60 -19 -11 -5 -40 -14 -64 -21 -25 -6
-54 -18 -65 -25 -12 -7 -66 -25 -121 -40 -61 -17 -129 -43 -175 -69 -153 -88
-191 -107 -200 -101 -6 4 -10 -3 -10 -14 0 -13 -12 -27 -32 -37 -36 -19 -208
-178 -222 -207 -13 -25 26 -63 44 -43 8 11 8 15 -1 18 -7 2 3 14 23 26 20 12
38 32 41 43 4 14 11 20 20 16 9 -3 20 4 28 19 8 16 18 23 28 19 10 -4 42 23
95 77 44 45 81 77 84 70 7 -21 27 -13 45 18 26 44 75 89 114 105 20 8 38 15
41 15 4 0 -23 -30 -58 -66 -36 -37 -55 -61 -44 -55 12 5 24 8 27 5 6 -6 67 23
67 32 0 2 -9 0 -19 -6 -59 -31 -16 20 47 58 33 19 46 22 52 12 5 -8 16 -10 31
-5 13 5 25 7 27 6 1 -1 15 5 32 14 16 8 48 15 71 15 40 0 41 1 26 18 -10 10
-17 28 -17 40 0 20 5 22 65 22 64 0 75 -6 55 -26 -23 -23 111 1 166 29 40 20
46 20 170 8 71 -7 134 -12 139 -11 64 9 179 10 189 1 7 -6 46 -14 87 -17 74
-7 129 -26 129 -44 0 -6 -6 -10 -12 -10 -7 0 19 -14 57 -31 39 -17 85 -31 103
-30 43 2 122 -33 148 -66 17 -21 24 -24 40 -15 19 10 19 11 -1 18 -11 5 -40
23 -63 41 -24 18 -48 30 -54 27 -13 -9 -96 24 -136 53 -71 53 -184 85 -422
119 -129 18 -460 27 -515 14z"/>
<path d="M2718 4083 c6 -2 18 -2 25 0 6 3 1 5 -13 5 -14 0 -19 -2 -12 -5z"/>
<path d="M3510 3777 c20 -19 100 -76 100 -71 0 9 -62 58 -84 67 -11 4 -18 6
-16 4z"/>
<path d="M3590 3745 c7 -9 15 -13 17 -11 7 7 -7 26 -19 26 -6 0 -6 -6 2 -15z"/>
<path d="M3620 3746 c0 -2 8 -10 18 -17 15 -13 16 -12 3 4 -13 16 -21 21 -21
13z"/>
<path d="M3705 3640 c3 -5 14 -10 23 -10 15 0 15 2 2 10 -20 13 -33 13 -25 0z"/>
<path d="M1217 3598 c-9 -7 -40 -45 -69 -84 -29 -39 -69 -91 -89 -115 -36 -44
-169 -267 -169 -285 0 -5 -16 -40 -35 -78 -19 -38 -38 -85 -41 -105 -4 -20
-14 -46 -22 -59 -12 -18 -12 -27 -2 -51 8 -20 17 -28 27 -24 12 5 14 0 8 -25
-3 -18 -3 -32 2 -32 15 0 51 120 58 190 9 89 25 152 39 147 6 -3 10 -11 8 -18
-1 -8 4 -6 13 5 8 10 12 23 9 28 -7 10 70 170 97 200 11 13 46 62 78 111 32
48 60 85 62 82 3 -2 15 25 26 60 12 36 20 65 19 65 -1 0 -10 -6 -19 -12z"/>
<path d="M3826 3567 c3 -10 9 -15 12 -12 3 3 0 11 -7 18 -10 9 -11 8 -5 -6z"/>
<path d="M1230 3534 c0 -8 5 -12 10 -9 6 3 10 10 10 16 0 5 -4 9 -10 9 -5 0
-10 -7 -10 -16z"/>
<path d="M1700 3405 c0 -3 17 -22 38 -43 32 -31 59 -86 172 -357 74 -176 159
-381 190 -455 l57 -135 76 -3 75 -3 15 43 c119 342 284 792 302 823 13 22 42
58 64 80 23 21 41 43 41 47 0 4 -67 8 -150 8 -127 0 -150 -2 -150 -15 0 -9 9
-15 24 -15 35 0 74 -36 87 -79 9 -29 9 -55 1 -102 -13 -76 -173 -532 -183
-522 -11 14 -249 607 -255 639 -8 40 16 64 62 64 24 0 34 5 34 15 0 13 -34 15
-250 15 -137 0 -250 -2 -250 -5z"/>
<path d="M2722 2894 c-144 -38 -257 -130 -317 -255 -93 -198 -56 -461 83 -591
92 -87 194 -122 352 -122 97 -1 111 2 185 33 154 65 157 66 177 41 10 -12 18
-31 18 -41 0 -10 7 -19 15 -19 13 0 15 26 15 171 0 170 7 209 35 209 8 0 15 7
15 15 0 13 -32 15 -230 15 -198 0 -230 -2 -230 -15 0 -10 10 -15 30 -15 42 0
86 -24 94 -52 11 -39 19 -203 12 -242 -10 -54 -37 -76 -91 -76 -143 0 -216
148 -218 440 -2 307 91 480 259 480 141 0 243 -99 260 -252 5 -48 10 -58 25
-58 18 0 19 11 19 170 0 138 -3 170 -14 170 -8 0 -17 -15 -20 -34 -11 -56 -25
-59 -86 -20 -30 19 -77 41 -104 49 -63 19 -214 18 -284 -1z"/>
<path d="M791 2748 c-1 -20 -7 -38 -13 -40 -16 -6 -25 -498 -10 -498 12 0 25
-115 23 -201 -1 -49 2 -69 14 -79 10 -9 12 -16 5 -24 -6 -9 2 -37 28 -92 20
-43 40 -81 44 -85 4 -3 20 -34 34 -70 14 -35 32 -71 40 -80 8 -8 14 -20 14
-26 0 -6 18 -31 40 -56 22 -25 40 -51 40 -59 0 -8 27 -46 60 -84 33 -38 60
-74 60 -80 0 -9 48 -57 185 -184 22 -20 56 -45 75 -55 19 -10 49 -31 65 -47
48 -46 122 -92 266 -163 133 -66 134 -67 199 -61 36 3 72 1 80 -4 8 -5 11 -10
5 -11 -27 -2 149 -49 224 -59 133 -18 486 -5 568 21 17 6 38 9 45 8 20 -4 78
11 78 20 0 5 39 20 86 36 153 48 333 142 348 181 3 8 15 14 26 14 31 0 125 57
159 96 17 19 34 34 39 34 18 0 232 220 232 239 0 10 11 26 24 35 14 9 34 36
45 61 11 24 31 59 44 77 31 41 88 155 126 252 45 112 110 336 110 376 0 19 2
73 6 120 l6 85 -23 -30 c-23 -29 -38 -81 -58 -200 -18 -105 -58 -230 -107
-327 -14 -29 -19 -48 -12 -48 8 0 8 -4 1 -12 -6 -7 -27 -44 -47 -83 -20 -38
-45 -79 -56 -91 -10 -11 -17 -23 -13 -26 3 -4 -12 -24 -33 -45 -21 -21 -54
-61 -72 -88 -92 -136 -354 -383 -427 -401 -13 -4 -38 -19 -55 -35 -43 -40 -97
-72 -113 -66 -16 6 -116 -38 -116 -51 0 -17 -71 -42 -119 -42 -64 0 -164 -21
-176 -36 -20 -26 -156 -40 -141 -15 2 3 -32 7 -75 7 -43 1 -79 -2 -79 -7 0
-12 -43 -11 -77 2 -15 6 -46 12 -68 13 -22 2 -53 6 -69 11 -18 5 -27 4 -23 -2
4 -6 -14 -6 -51 -1 -31 5 -72 9 -89 8 -18 0 -33 4 -33 9 0 12 -86 41 -124 41
-32 1 -84 29 -55 31 18 1 -26 16 -71 23 -19 4 -48 16 -63 29 -16 12 -41 31
-55 43 -15 11 -62 39 -105 62 -71 38 -133 83 -208 152 -15 14 -33 26 -40 28
-18 4 -49 32 -49 44 0 4 -21 28 -46 52 -25 25 -44 49 -40 54 3 5 -17 31 -44
57 -28 27 -50 54 -50 60 0 6 -13 21 -29 33 -16 12 -47 57 -70 100 -22 44 -51
96 -65 117 -27 40 -36 74 -11 41 22 -29 18 -15 -11 40 -30 55 -51 122 -57 174
-2 19 -9 46 -16 59 -7 12 -10 34 -7 47 4 13 2 24 -2 24 -9 0 -32 112 -38 180
-1 19 -7 48 -13 63 -7 19 -8 57 -1 120 13 125 12 201 -5 267 -12 51 -13 53
-14 18z"/>
<path d="M932 1860 c0 -14 2 -19 5 -12 2 6 2 18 0 25 -3 6 -5 1 -5 -13z"/>
<path d="M2080 1596 c0 -2 7 -7 16 -10 8 -3 12 -2 9 4 -6 10 -25 14 -25 6z"/>
<path d="M2190 1555 c0 -36 3 -45 18 -44 10 0 12 3 5 6 -7 2 -13 12 -13 20 0
9 6 13 15 9 9 -3 15 0 15 9 0 9 -6 12 -17 8 -13 -5 -15 -2 -11 15 4 12 2 22
-3 22 -5 0 -9 -20 -9 -45z"/>
<path d="M2220 1596 c0 -2 7 -7 16 -10 8 -3 12 -2 9 4 -6 10 -25 14 -25 6z"/>
<path d="M2325 1555 c0 -25 3 -45 8 -45 4 0 7 10 7 23 l1 22 18 -22 c11 -13
25 -23 33 -23 8 0 6 5 -5 11 -14 8 -17 18 -12 37 6 26 -6 42 -35 42 -11 0 -15
-12 -15 -45z m37 20 c0 -5 -5 -11 -11 -13 -6 -2 -11 4 -11 13 0 9 5 15 11 13
6 -2 11 -8 11 -13z"/>
<path d="M2460 1581 c5 -11 15 -32 20 -47 6 -15 13 -25 15 -22 3 3 -1 21 -9
40 -9 20 -12 38 -9 42 4 3 -1 6 -11 6 -13 0 -15 -4 -6 -19z"/>
<path d="M2513 1578 c-2 -18 0 -20 7 -8 12 18 13 30 2 30 -4 0 -9 -10 -9 -22z"/>
<path d="M2605 1555 c0 -25 3 -45 8 -45 4 0 7 20 7 45 0 25 -3 45 -7 45 -5 0
-8 -20 -8 -45z"/>
<path d="M2706 1584 c-31 -31 -9 -81 31 -71 15 4 14 5 -3 6 -12 0 -24 9 -27
21 -7 26 16 55 37 47 10 -4 15 -3 11 3 -9 15 -31 12 -49 -6z"/>
<path d="M2840 1555 c0 -36 3 -45 18 -44 10 0 12 3 5 6 -7 2 -13 12 -13 20 0
9 6 13 15 9 9 -3 15 0 15 9 0 9 -6 12 -17 8 -13 -5 -15 -2 -11 15 4 12 2 22
-3 22 -5 0 -9 -20 -9 -45z"/>
<path d="M2870 1596 c0 -2 7 -7 16 -10 8 -3 12 -2 9 4 -6 10 -25 14 -25 6z"/>
<path d="M2973 1584 c-4 -11 2 -23 17 -34 15 -11 20 -22 15 -30 -5 -9 -4 -11
3 -6 19 11 14 32 -10 49 -20 14 -21 18 -8 26 11 8 11 11 2 11 -7 0 -15 -7 -19
-16z"/>
<path d="M2066 1566 c3 -8 14 -18 25 -21 28 -9 23 -28 -6 -23 -14 3 -25 1 -25
-4 0 -16 55 -4 58 12 1 9 -11 23 -28 33 -24 15 -29 15 -24 3z"/>
<path d="M2235 1520 c-3 -5 -1 -10 4 -10 6 0 11 5 11 10 0 6 -2 10 -4 10 -3 0
-8 -4 -11 -10z"/>
<path d="M2885 1520 c-3 -5 -1 -10 4 -10 6 0 11 5 11 10 0 6 -2 10 -4 10 -3 0
-8 -4 -11 -10z"/>
<path d="M2967 1519 c7 -7 15 -10 18 -7 3 3 -2 9 -12 12 -14 6 -15 5 -6 -5z"/>
</g>
</svg>
